<svg width="103" height="24" viewBox="0 0 103 24" fill="none" xmlns="http://www.w3.org/2000/svg">
<path fill-rule="evenodd" clip-rule="evenodd" d="M8.98256 16.8C8.18845 16.8 7.42687 16.4839 6.86535 15.9213C6.30383 15.3587 5.98837 14.5956 5.98837 13.8V0H0V13.8C0 18.7704 4.02179 22.8 8.98256 22.8H15.5698V16.8H8.98256ZM26.9477 6C26.2399 6 25.5391 6.13968 24.8852 6.41105C24.2313 6.68243 23.6372 7.08019 23.1367 7.58162C22.6362 8.08306 22.2392 8.67835 21.9684 9.33351C21.6975 9.98867 21.5581 10.6909 21.5581 11.4C21.5581 12.1091 21.6975 12.8113 21.9684 13.4665C22.2392 14.1216 22.6362 14.7169 23.1367 15.2184C23.6372 15.7198 24.2313 16.1176 24.8852 16.389C25.5391 16.6603 26.2399 16.8 26.9477 16.8C28.3771 16.8 29.7479 16.2311 30.7586 15.2184C31.7694 14.2057 32.3372 12.8322 32.3372 11.4C32.3372 9.96783 31.7694 8.59432 30.7586 7.58162C29.7479 6.56893 28.3771 6 26.9477 6ZM15.5698 11.4C15.5698 5.1042 20.6641 0 26.9477 0C33.2313 0 38.3256 5.1042 38.3256 11.4C38.3256 17.6958 33.2313 22.8 26.9477 22.8C20.6641 22.8 15.5698 17.6958 15.5698 11.4ZM91.6221 6C90.1927 6 88.8218 6.56893 87.8111 7.58162C86.8004 8.59432 86.2326 9.96783 86.2326 11.4C86.2326 12.8322 86.8004 14.2057 87.8111 15.2184C88.8218 16.2311 90.1927 16.8 91.6221 16.8C93.0515 16.8 94.4223 16.2311 95.4331 15.2184C96.4438 14.2057 97.0116 12.8322 97.0116 11.4C97.0116 9.96783 96.4438 8.59432 95.4331 7.58162C94.4223 6.56893 93.0515 6 91.6221 6ZM80.2442 11.4C80.2442 5.1042 85.3385 0 91.6221 0C97.9057 0 103 5.1042 103 11.4C103 17.6958 97.9057 22.8 91.6221 22.8C85.3385 22.8 80.2442 17.6958 80.2442 11.4ZM50.9012 0C44.6176 0 39.5233 5.1042 39.5233 11.4C39.5233 17.6958 44.6176 22.8 50.9012 22.8H67.6686C68.8477 22.8 69.9849 22.62 71.0544 22.2864L74.2558 24L77.7099 17.5176C78.5873 15.8674 79.0463 14.0264 79.0465 12.1566V11.4C79.0465 5.1042 73.9522 0 67.6686 0H50.9012ZM73.0581 11.4C73.0581 9.96783 72.4903 8.59432 71.4796 7.58162C70.4688 6.56893 69.098 6 67.6686 6H50.9012C50.1934 6 49.4926 6.13968 48.8387 6.41105C48.1848 6.68243 47.5906 7.08019 47.0902 7.58162C46.5897 8.08306 46.1927 8.67835 45.9219 9.33351C45.651 9.98867 45.5116 10.6909 45.5116 11.4C45.5116 12.1091 45.651 12.8113 45.9219 13.4665C46.1927 14.1216 46.5897 14.7169 47.0902 15.2184C47.5906 15.7198 48.1848 16.1176 48.8387 16.389C49.4926 16.6603 50.1934 16.8 50.9012 16.8H67.6686C69.0908 16.8 70.4553 16.2369 71.4648 15.2333C72.4744 14.2296 73.0471 12.8669 73.0581 11.442V11.4Z" fill="#00171F"/>
</svg>
